# xmcd
#
# Track frame offsets: 
#        150
#        20974
#        40687
#        58145
#        80996
#        100776
#        121726
#        136030
#        155321
#        174256
#        195963
#        217755
#
# Disc length: 3008 seconds
#
# Revision: 0
# Processed by: cddbd v1.5.2PL0 Copyright (c) Steve Scherf et al.
# Submitted via: ExactAudioCopy v0.95b3
#
DISCID=930bbe0c
DTITLE=Donald Ray Johnson - Travelin' Man
DYEAR=2006
DGENRE=Blues
TTITLE0=Travelin' Man
TTITLE1=If Walls Could Talk
TTITLE2=Always On My Mind
TTITLE3=Last Two Dollars
TTITLE4=Steamy Windows
TTITLE5=Sugar Daddy
TTITLE6=Me and Jack (Daniels)
TTITLE7=Yonder Wall
TTITLE8=Reconsider
TTITLE9=Apple Tree
TTITLE10=Who Is He?
TTITLE11=You Reign King Jesus
EXTD=
EXTT0=
EXTT1=
EXTT2=
EXTT3=
EXTT4=
EXTT5=
EXTT6=
EXTT7=
EXTT8=
EXTT9=
EXTT10=
EXTT11=
PLAYORDER=
